<mxfile host="Electron" modified="2025-05-05T06:45:25.923Z" agent="Mozilla/5.0 (Windows NT 10.0; Win64; x64) AppleWebKit/537.36 (KHTML, like Gecko) draw.io/24.1.0 Chrome/120.0.6099.109 Electron/28.1.0 Safari/537.36" etag="jaerO4MmeLVSx-jEzP3V" version="24.1.0" type="device">
  <diagram name="Trang-1" id="UbYdyXhSzg272qLLyxU5">
    <mxGraphModel dx="1195" dy="697" grid="1" gridSize="10" guides="1" tooltips="1" connect="1" arrows="1" fold="1" page="1" pageScale="1" pageWidth="1600" pageHeight="900" math="0" shadow="0">
      <root>
        <mxCell id="0" />
        <mxCell id="1" parent="0" />
        <mxCell id="PwG26yF0GhnAKsFlcYfw-7" style="edgeStyle=orthogonalEdgeStyle;rounded=0;orthogonalLoop=1;jettySize=auto;html=1;entryX=0.5;entryY=0;entryDx=0;entryDy=0;strokeWidth=3;" edge="1" parent="1" source="PwG26yF0GhnAKsFlcYfw-1" target="PwG26yF0GhnAKsFlcYfw-2">
          <mxGeometry relative="1" as="geometry" />
        </mxCell>
        <mxCell id="PwG26yF0GhnAKsFlcYfw-1" value="&lt;font style=&quot;font-size: 16px;&quot; face=&quot;Times New Roman&quot;&gt;&lt;b&gt;BEGIN&lt;/b&gt;&lt;/font&gt;" style="rounded=1;whiteSpace=wrap;html=1;arcSize=50;fillColor=#f0a30a;strokeColor=#BD7000;fontColor=#000000;" vertex="1" parent="1">
          <mxGeometry x="510" y="30" width="120" height="60" as="geometry" />
        </mxCell>
        <mxCell id="PwG26yF0GhnAKsFlcYfw-8" style="edgeStyle=orthogonalEdgeStyle;rounded=0;orthogonalLoop=1;jettySize=auto;html=1;entryX=0.5;entryY=0;entryDx=0;entryDy=0;strokeWidth=3;" edge="1" parent="1" source="PwG26yF0GhnAKsFlcYfw-2" target="PwG26yF0GhnAKsFlcYfw-3">
          <mxGeometry relative="1" as="geometry" />
        </mxCell>
        <mxCell id="PwG26yF0GhnAKsFlcYfw-2" value="&lt;p style=&quot;white-space-collapse: preserve;&quot; dir=&quot;auto&quot;&gt;&lt;font style=&quot;font-size: 16px;&quot; face=&quot;Times New Roman&quot;&gt;&lt;b&gt;Khởi tạo thiết bị, định nghĩa chân LED, cảm biến DHT11, kết nối Firebase, định nghĩa wifi&lt;/b&gt;&lt;/font&gt;&lt;/p&gt;" style="shape=parallelogram;perimeter=parallelogramPerimeter;whiteSpace=wrap;html=1;fixedSize=1;fillColor=#dae8fc;strokeColor=#6c8ebf;gradientColor=#7ea6e0;" vertex="1" parent="1">
          <mxGeometry x="385" y="120" width="370" height="60" as="geometry" />
        </mxCell>
        <mxCell id="PwG26yF0GhnAKsFlcYfw-9" style="edgeStyle=orthogonalEdgeStyle;rounded=0;orthogonalLoop=1;jettySize=auto;html=1;entryX=0.5;entryY=0;entryDx=0;entryDy=0;strokeWidth=3;" edge="1" parent="1" source="PwG26yF0GhnAKsFlcYfw-3" target="PwG26yF0GhnAKsFlcYfw-4">
          <mxGeometry relative="1" as="geometry" />
        </mxCell>
        <mxCell id="PwG26yF0GhnAKsFlcYfw-3" value="&lt;font style=&quot;font-size: 16px;&quot; face=&quot;Times New Roman&quot;&gt;&lt;b&gt;connect Wifi()&lt;/b&gt;&lt;/font&gt;" style="shape=process;whiteSpace=wrap;html=1;backgroundOutline=1;fillColor=#ffff88;strokeColor=#36393d;" vertex="1" parent="1">
          <mxGeometry x="485" y="220" width="170" height="60" as="geometry" />
        </mxCell>
        <mxCell id="PwG26yF0GhnAKsFlcYfw-10" style="edgeStyle=orthogonalEdgeStyle;rounded=0;orthogonalLoop=1;jettySize=auto;html=1;entryX=0.5;entryY=0;entryDx=0;entryDy=0;strokeWidth=3;" edge="1" parent="1" source="PwG26yF0GhnAKsFlcYfw-4" target="PwG26yF0GhnAKsFlcYfw-5">
          <mxGeometry relative="1" as="geometry" />
        </mxCell>
        <mxCell id="PwG26yF0GhnAKsFlcYfw-4" value="&lt;font style=&quot;font-size: 16px;&quot; face=&quot;Times New Roman&quot;&gt;&lt;b&gt;void setup()&lt;/b&gt;&lt;/font&gt;" style="shape=process;whiteSpace=wrap;html=1;backgroundOutline=1;fillColor=#cdeb8b;strokeColor=#36393d;" vertex="1" parent="1">
          <mxGeometry x="485" y="320" width="170" height="60" as="geometry" />
        </mxCell>
        <mxCell id="PwG26yF0GhnAKsFlcYfw-11" style="edgeStyle=orthogonalEdgeStyle;rounded=0;orthogonalLoop=1;jettySize=auto;html=1;entryX=0.5;entryY=0;entryDx=0;entryDy=0;strokeWidth=3;" edge="1" parent="1" source="PwG26yF0GhnAKsFlcYfw-5" target="PwG26yF0GhnAKsFlcYfw-6">
          <mxGeometry relative="1" as="geometry" />
        </mxCell>
        <mxCell id="PwG26yF0GhnAKsFlcYfw-5" value="&lt;font style=&quot;font-size: 16px;&quot; face=&quot;Times New Roman&quot;&gt;&lt;b&gt;void loop()&lt;/b&gt;&lt;/font&gt;" style="shape=process;whiteSpace=wrap;html=1;backgroundOutline=1;fillColor=#ffcccc;strokeColor=#36393d;" vertex="1" parent="1">
          <mxGeometry x="485" y="420" width="170" height="60" as="geometry" />
        </mxCell>
        <mxCell id="PwG26yF0GhnAKsFlcYfw-6" value="&lt;b&gt;&lt;font style=&quot;font-size: 15px;&quot; face=&quot;Times New Roman&quot;&gt;END&lt;/font&gt;&lt;/b&gt;" style="ellipse;whiteSpace=wrap;html=1;fillColor=#ffe6cc;strokeColor=#d79b00;" vertex="1" parent="1">
          <mxGeometry x="510" y="520" width="120" height="50" as="geometry" />
        </mxCell>
        <mxCell id="PwG26yF0GhnAKsFlcYfw-19" style="edgeStyle=orthogonalEdgeStyle;rounded=0;orthogonalLoop=1;jettySize=auto;html=1;entryX=0.5;entryY=0;entryDx=0;entryDy=0;strokeWidth=3;" edge="1" parent="1" source="PwG26yF0GhnAKsFlcYfw-12" target="PwG26yF0GhnAKsFlcYfw-13">
          <mxGeometry relative="1" as="geometry" />
        </mxCell>
        <mxCell id="PwG26yF0GhnAKsFlcYfw-12" value="&lt;b style=&quot;font-family: &amp;quot;Times New Roman&amp;quot;; font-size: 16px;&quot;&gt;connect Wifi()&lt;/b&gt;" style="rounded=1;whiteSpace=wrap;html=1;arcSize=50;fillColor=#ffff88;strokeColor=#36393d;" vertex="1" parent="1">
          <mxGeometry x="950" y="30" width="130" height="60" as="geometry" />
        </mxCell>
        <mxCell id="PwG26yF0GhnAKsFlcYfw-20" style="edgeStyle=orthogonalEdgeStyle;rounded=0;orthogonalLoop=1;jettySize=auto;html=1;entryX=0.5;entryY=0;entryDx=0;entryDy=0;strokeWidth=3;" edge="1" parent="1" source="PwG26yF0GhnAKsFlcYfw-13" target="PwG26yF0GhnAKsFlcYfw-14">
          <mxGeometry relative="1" as="geometry" />
        </mxCell>
        <mxCell id="PwG26yF0GhnAKsFlcYfw-13" value="&lt;font style=&quot;font-size: 16px;&quot; face=&quot;Times New Roman&quot;&gt;Hiển thị trạng thái: &quot;Đang kết nối Wifi&quot;&lt;/font&gt;" style="rounded=0;whiteSpace=wrap;html=1;fillColor=#cce5ff;strokeColor=#36393d;" vertex="1" parent="1">
          <mxGeometry x="915" y="130" width="200" height="60" as="geometry" />
        </mxCell>
        <mxCell id="PwG26yF0GhnAKsFlcYfw-21" style="edgeStyle=orthogonalEdgeStyle;rounded=0;orthogonalLoop=1;jettySize=auto;html=1;exitX=1;exitY=0.5;exitDx=0;exitDy=0;entryX=0;entryY=0.5;entryDx=0;entryDy=0;strokeWidth=3;" edge="1" parent="1" source="PwG26yF0GhnAKsFlcYfw-14" target="PwG26yF0GhnAKsFlcYfw-15">
          <mxGeometry relative="1" as="geometry" />
        </mxCell>
        <mxCell id="PwG26yF0GhnAKsFlcYfw-22" style="edgeStyle=orthogonalEdgeStyle;rounded=0;orthogonalLoop=1;jettySize=auto;html=1;entryX=0.5;entryY=0;entryDx=0;entryDy=0;strokeWidth=3;" edge="1" parent="1" source="PwG26yF0GhnAKsFlcYfw-14" target="PwG26yF0GhnAKsFlcYfw-16">
          <mxGeometry relative="1" as="geometry" />
        </mxCell>
        <mxCell id="PwG26yF0GhnAKsFlcYfw-14" value="&lt;font style=&quot;font-size: 16px;&quot; face=&quot;Times New Roman&quot;&gt;Kiểm tra kết nối?&lt;/font&gt;" style="rhombus;whiteSpace=wrap;html=1;fillColor=#ffcc99;strokeColor=#36393d;" vertex="1" parent="1">
          <mxGeometry x="935" y="230" width="160" height="80" as="geometry" />
        </mxCell>
        <mxCell id="PwG26yF0GhnAKsFlcYfw-24" style="edgeStyle=orthogonalEdgeStyle;rounded=0;orthogonalLoop=1;jettySize=auto;html=1;entryX=0.5;entryY=0;entryDx=0;entryDy=0;strokeWidth=3;" edge="1" parent="1" source="PwG26yF0GhnAKsFlcYfw-15" target="PwG26yF0GhnAKsFlcYfw-17">
          <mxGeometry relative="1" as="geometry">
            <mxPoint x="1205" y="440" as="targetPoint" />
            <Array as="points">
              <mxPoint x="1205" y="370" />
              <mxPoint x="1206" y="370" />
              <mxPoint x="1206" y="430" />
              <mxPoint x="1015" y="430" />
            </Array>
          </mxGeometry>
        </mxCell>
        <mxCell id="PwG26yF0GhnAKsFlcYfw-15" value="&lt;font face=&quot;Times New Roman&quot;&gt;&lt;span style=&quot;font-size: 16px;&quot;&gt;Hiển thị địa chỉ IP&lt;/span&gt;&lt;/font&gt;" style="rounded=0;whiteSpace=wrap;html=1;fillColor=#cce5ff;strokeColor=#36393d;" vertex="1" parent="1">
          <mxGeometry x="1140" y="240" width="130" height="60" as="geometry" />
        </mxCell>
        <mxCell id="PwG26yF0GhnAKsFlcYfw-23" style="edgeStyle=orthogonalEdgeStyle;rounded=0;orthogonalLoop=1;jettySize=auto;html=1;entryX=0.5;entryY=0;entryDx=0;entryDy=0;strokeWidth=3;" edge="1" parent="1" source="PwG26yF0GhnAKsFlcYfw-16" target="PwG26yF0GhnAKsFlcYfw-17">
          <mxGeometry relative="1" as="geometry" />
        </mxCell>
        <mxCell id="PwG26yF0GhnAKsFlcYfw-16" value="&lt;font face=&quot;Times New Roman&quot;&gt;&lt;span style=&quot;font-size: 16px;&quot;&gt;Lỗi hiện thị kết nối&lt;/span&gt;&lt;/font&gt;" style="rounded=0;whiteSpace=wrap;html=1;fillColor=#cce5ff;strokeColor=#36393d;" vertex="1" parent="1">
          <mxGeometry x="950" y="350" width="130" height="60" as="geometry" />
        </mxCell>
        <mxCell id="PwG26yF0GhnAKsFlcYfw-17" value="&lt;b&gt;&lt;font style=&quot;font-size: 15px;&quot; face=&quot;Times New Roman&quot;&gt;END&lt;/font&gt;&lt;/b&gt;" style="ellipse;whiteSpace=wrap;html=1;fillColor=#ffe6cc;strokeColor=#d79b00;" vertex="1" parent="1">
          <mxGeometry x="955" y="450" width="120" height="50" as="geometry" />
        </mxCell>
        <mxCell id="PwG26yF0GhnAKsFlcYfw-25" value="&lt;font size=&quot;1&quot; face=&quot;Times New Roman&quot;&gt;&lt;b style=&quot;font-size: 15px;&quot;&gt;Yes&lt;/b&gt;&lt;/font&gt;" style="text;html=1;align=center;verticalAlign=middle;whiteSpace=wrap;rounded=0;" vertex="1" parent="1">
          <mxGeometry x="1075" y="235" width="60" height="30" as="geometry" />
        </mxCell>
        <mxCell id="PwG26yF0GhnAKsFlcYfw-26" value="&lt;font size=&quot;1&quot; face=&quot;Times New Roman&quot;&gt;&lt;b style=&quot;font-size: 15px;&quot;&gt;No&lt;/b&gt;&lt;/font&gt;" style="text;html=1;align=center;verticalAlign=middle;whiteSpace=wrap;rounded=0;" vertex="1" parent="1">
          <mxGeometry x="970" y="300" width="60" height="30" as="geometry" />
        </mxCell>
        <mxCell id="PwG26yF0GhnAKsFlcYfw-34" style="edgeStyle=orthogonalEdgeStyle;rounded=0;orthogonalLoop=1;jettySize=auto;html=1;strokeWidth=3;" edge="1" parent="1" source="PwG26yF0GhnAKsFlcYfw-27" target="PwG26yF0GhnAKsFlcYfw-28">
          <mxGeometry relative="1" as="geometry" />
        </mxCell>
        <mxCell id="PwG26yF0GhnAKsFlcYfw-27" value="&lt;b style=&quot;font-family: &amp;quot;Times New Roman&amp;quot;; font-size: 16px;&quot;&gt;void setup()&lt;/b&gt;" style="rounded=1;whiteSpace=wrap;html=1;arcSize=50;fillColor=#cdeb8b;strokeColor=#36393d;" vertex="1" parent="1">
          <mxGeometry x="1412.5" y="30" width="130" height="60" as="geometry" />
        </mxCell>
        <mxCell id="PwG26yF0GhnAKsFlcYfw-35" style="edgeStyle=orthogonalEdgeStyle;rounded=0;orthogonalLoop=1;jettySize=auto;html=1;entryX=0.5;entryY=0;entryDx=0;entryDy=0;strokeWidth=3;" edge="1" parent="1" source="PwG26yF0GhnAKsFlcYfw-28" target="PwG26yF0GhnAKsFlcYfw-29">
          <mxGeometry relative="1" as="geometry" />
        </mxCell>
        <mxCell id="PwG26yF0GhnAKsFlcYfw-28" value="&lt;font style=&quot;font-size: 16px;&quot; face=&quot;Times New Roman&quot;&gt;Cấu hình LED&lt;/font&gt;" style="rounded=0;whiteSpace=wrap;html=1;fillColor=#cce5ff;strokeColor=#36393d;" vertex="1" parent="1">
          <mxGeometry x="1390" y="130" width="175" height="60" as="geometry" />
        </mxCell>
        <mxCell id="PwG26yF0GhnAKsFlcYfw-36" style="edgeStyle=orthogonalEdgeStyle;rounded=0;orthogonalLoop=1;jettySize=auto;html=1;entryX=0.5;entryY=0;entryDx=0;entryDy=0;strokeWidth=3;" edge="1" parent="1" source="PwG26yF0GhnAKsFlcYfw-29" target="PwG26yF0GhnAKsFlcYfw-30">
          <mxGeometry relative="1" as="geometry" />
        </mxCell>
        <mxCell id="PwG26yF0GhnAKsFlcYfw-29" value="&lt;font style=&quot;font-size: 16px;&quot; face=&quot;Times New Roman&quot;&gt;Khởi động DHT11&lt;/font&gt;" style="rounded=0;whiteSpace=wrap;html=1;fillColor=#cce5ff;strokeColor=#36393d;" vertex="1" parent="1">
          <mxGeometry x="1390" y="220" width="175" height="60" as="geometry" />
        </mxCell>
        <mxCell id="PwG26yF0GhnAKsFlcYfw-37" style="edgeStyle=orthogonalEdgeStyle;rounded=0;orthogonalLoop=1;jettySize=auto;html=1;strokeWidth=3;" edge="1" parent="1" source="PwG26yF0GhnAKsFlcYfw-30" target="PwG26yF0GhnAKsFlcYfw-31">
          <mxGeometry relative="1" as="geometry" />
        </mxCell>
        <mxCell id="PwG26yF0GhnAKsFlcYfw-30" value="&lt;font style=&quot;font-size: 16px;&quot; face=&quot;Times New Roman&quot;&gt;&lt;b&gt;connect Wifi()&lt;/b&gt;&lt;/font&gt;" style="shape=process;whiteSpace=wrap;html=1;backgroundOutline=1;fillColor=#ffff88;strokeColor=#36393d;" vertex="1" parent="1">
          <mxGeometry x="1390" y="310" width="175" height="60" as="geometry" />
        </mxCell>
        <mxCell id="PwG26yF0GhnAKsFlcYfw-38" style="edgeStyle=orthogonalEdgeStyle;rounded=0;orthogonalLoop=1;jettySize=auto;html=1;strokeWidth=3;" edge="1" parent="1" source="PwG26yF0GhnAKsFlcYfw-31" target="PwG26yF0GhnAKsFlcYfw-32">
          <mxGeometry relative="1" as="geometry" />
        </mxCell>
        <mxCell id="PwG26yF0GhnAKsFlcYfw-31" value="&lt;font style=&quot;font-size: 16px;&quot; face=&quot;Times New Roman&quot;&gt;Kết nối Firebase&lt;/font&gt;" style="rounded=0;whiteSpace=wrap;html=1;fillColor=#cce5ff;strokeColor=#36393d;" vertex="1" parent="1">
          <mxGeometry x="1390" y="400" width="175" height="60" as="geometry" />
        </mxCell>
        <mxCell id="PwG26yF0GhnAKsFlcYfw-39" style="edgeStyle=orthogonalEdgeStyle;rounded=0;orthogonalLoop=1;jettySize=auto;html=1;strokeWidth=3;" edge="1" parent="1" source="PwG26yF0GhnAKsFlcYfw-32" target="PwG26yF0GhnAKsFlcYfw-33">
          <mxGeometry relative="1" as="geometry" />
        </mxCell>
        <mxCell id="PwG26yF0GhnAKsFlcYfw-32" value="&lt;font style=&quot;font-size: 16px;&quot; face=&quot;Times New Roman&quot;&gt;&lt;b&gt;initialize FirebaseStates()&lt;/b&gt;&lt;/font&gt;" style="shape=process;whiteSpace=wrap;html=1;backgroundOutline=1;fillColor=#e1d5e7;strokeColor=#9673a6;" vertex="1" parent="1">
          <mxGeometry x="1390" y="490" width="175" height="60" as="geometry" />
        </mxCell>
        <mxCell id="PwG26yF0GhnAKsFlcYfw-33" value="&lt;b&gt;&lt;font style=&quot;font-size: 15px;&quot; face=&quot;Times New Roman&quot;&gt;END&lt;/font&gt;&lt;/b&gt;" style="ellipse;whiteSpace=wrap;html=1;fillColor=#ffe6cc;strokeColor=#d79b00;" vertex="1" parent="1">
          <mxGeometry x="1417.5" y="580" width="120" height="50" as="geometry" />
        </mxCell>
        <mxCell id="PwG26yF0GhnAKsFlcYfw-46" style="edgeStyle=orthogonalEdgeStyle;rounded=0;orthogonalLoop=1;jettySize=auto;html=1;entryX=0.5;entryY=0;entryDx=0;entryDy=0;strokeWidth=3;" edge="1" parent="1" source="PwG26yF0GhnAKsFlcYfw-40" target="PwG26yF0GhnAKsFlcYfw-41">
          <mxGeometry relative="1" as="geometry" />
        </mxCell>
        <mxCell id="PwG26yF0GhnAKsFlcYfw-40" value="&lt;b style=&quot;font-family: &amp;quot;Times New Roman&amp;quot;; font-size: 16px;&quot;&gt;initialize FirebaseStates()&lt;/b&gt;" style="rounded=1;whiteSpace=wrap;html=1;arcSize=50;fillColor=#e1d5e7;strokeColor=#9673a6;" vertex="1" parent="1">
          <mxGeometry x="1412.5" y="700" width="130" height="60" as="geometry" />
        </mxCell>
        <mxCell id="PwG26yF0GhnAKsFlcYfw-47" style="edgeStyle=orthogonalEdgeStyle;rounded=0;orthogonalLoop=1;jettySize=auto;html=1;entryX=0.5;entryY=0;entryDx=0;entryDy=0;strokeWidth=3;" edge="1" parent="1" source="PwG26yF0GhnAKsFlcYfw-41" target="PwG26yF0GhnAKsFlcYfw-42">
          <mxGeometry relative="1" as="geometry" />
        </mxCell>
        <mxCell id="PwG26yF0GhnAKsFlcYfw-41" value="&lt;font face=&quot;Times New Roman&quot;&gt;&lt;span style=&quot;font-size: 16px;&quot;&gt;Đặt giá trị ban đầu (nhiệt độ, độ ẩm, LED) = 0&lt;/span&gt;&lt;/font&gt;" style="rounded=0;whiteSpace=wrap;html=1;fillColor=#cce5ff;strokeColor=#36393d;" vertex="1" parent="1">
          <mxGeometry x="1390" y="800" width="175" height="60" as="geometry" />
        </mxCell>
        <mxCell id="PwG26yF0GhnAKsFlcYfw-48" style="edgeStyle=orthogonalEdgeStyle;rounded=0;orthogonalLoop=1;jettySize=auto;html=1;strokeWidth=3;" edge="1" parent="1" source="PwG26yF0GhnAKsFlcYfw-42" target="PwG26yF0GhnAKsFlcYfw-43">
          <mxGeometry relative="1" as="geometry" />
        </mxCell>
        <mxCell id="PwG26yF0GhnAKsFlcYfw-50" style="edgeStyle=orthogonalEdgeStyle;rounded=0;orthogonalLoop=1;jettySize=auto;html=1;entryX=0.5;entryY=0;entryDx=0;entryDy=0;strokeWidth=3;" edge="1" parent="1" source="PwG26yF0GhnAKsFlcYfw-42" target="PwG26yF0GhnAKsFlcYfw-44">
          <mxGeometry relative="1" as="geometry" />
        </mxCell>
        <mxCell id="PwG26yF0GhnAKsFlcYfw-42" value="&lt;font style=&quot;font-size: 16px;&quot; face=&quot;Times New Roman&quot;&gt;Kiểm tra kết nối?&lt;/font&gt;" style="rhombus;whiteSpace=wrap;html=1;fillColor=#ffcc99;strokeColor=#36393d;" vertex="1" parent="1">
          <mxGeometry x="1397.5" y="910" width="160" height="80" as="geometry" />
        </mxCell>
        <mxCell id="PwG26yF0GhnAKsFlcYfw-52" style="edgeStyle=orthogonalEdgeStyle;rounded=0;orthogonalLoop=1;jettySize=auto;html=1;endArrow=none;endFill=0;strokeWidth=3;" edge="1" parent="1" source="PwG26yF0GhnAKsFlcYfw-43">
          <mxGeometry relative="1" as="geometry">
            <mxPoint x="1480" y="1110" as="targetPoint" />
            <Array as="points">
              <mxPoint x="1698" y="1070" />
              <mxPoint x="1698" y="1110" />
            </Array>
          </mxGeometry>
        </mxCell>
        <mxCell id="PwG26yF0GhnAKsFlcYfw-43" value="&lt;font face=&quot;Times New Roman&quot;&gt;&lt;span style=&quot;font-size: 16px;&quot;&gt;Hiển thị lỗi&lt;/span&gt;&lt;/font&gt;&lt;span style=&quot;color: rgba(0, 0, 0, 0); font-family: monospace; font-size: 0px; text-align: start; text-wrap: nowrap;&quot;&gt;%3CmxGraphModel%3E%3Croot%3E%3CmxCell%20id%3D%220%22%2F%3E%3CmxCell%20id%3D%221%22%20parent%3D%220%22%2F%3E%3CmxCell%20id%3D%222%22%20value%3D%22%26lt%3Bfont%20face%3D%26quot%3BTimes%20New%20Roman%26quot%3B%26gt%3B%26lt%3Bspan%20style%3D%26quot%3Bfont-size%3A%2016px%3B%26quot%3B%26gt%3B%C4%90%E1%BA%B7t%20gi%C3%A1%20tr%E1%BB%8B%20ban%20%C4%91%E1%BA%A7u%20(nhi%E1%BB%87t%20%C4%91%E1%BB%99%2C%20%C4%91%E1%BB%99%20%E1%BA%A9m%2C%20LED)%20%3D%200%26lt%3B%2Fspan%26gt%3B%26lt%3B%2Ffont%26gt%3B%22%20style%3D%22rounded%3D0%3BwhiteSpace%3Dwrap%3Bhtml%3D1%3BfillColor%3D%23cce5ff%3BstrokeColor%3D%2336393d%3B%22%20vertex%3D%221%22%20parent%3D%221%22%3E%3CmxGeometry%20x%3D%221390%22%20y%3D%22800%22%20width%3D%22175%22%20height%3D%2260%22%20as%3D%22geometry%22%2F%3E%3C%2FmxCell%3E%3C%2Froot%3E%3C%2FmxGraphModel%3E&lt;/span&gt;" style="rounded=0;whiteSpace=wrap;html=1;fillColor=#cce5ff;strokeColor=#36393d;" vertex="1" parent="1">
          <mxGeometry x="1610" y="920" width="175" height="60" as="geometry" />
        </mxCell>
        <mxCell id="PwG26yF0GhnAKsFlcYfw-51" style="edgeStyle=orthogonalEdgeStyle;rounded=0;orthogonalLoop=1;jettySize=auto;html=1;entryX=0.5;entryY=0;entryDx=0;entryDy=0;strokeWidth=3;" edge="1" parent="1" source="PwG26yF0GhnAKsFlcYfw-44" target="PwG26yF0GhnAKsFlcYfw-45">
          <mxGeometry relative="1" as="geometry" />
        </mxCell>
        <mxCell id="PwG26yF0GhnAKsFlcYfw-44" value="&lt;font face=&quot;Times New Roman&quot;&gt;&lt;span style=&quot;font-size: 16px;&quot;&gt;Hiển thị &quot;Khởi tạo hoàn tất&quot;&lt;/span&gt;&lt;/font&gt;" style="rounded=0;whiteSpace=wrap;html=1;fillColor=#cce5ff;strokeColor=#36393d;" vertex="1" parent="1">
          <mxGeometry x="1390" y="1030" width="175" height="60" as="geometry" />
        </mxCell>
        <mxCell id="PwG26yF0GhnAKsFlcYfw-45" value="&lt;b&gt;&lt;font style=&quot;font-size: 15px;&quot; face=&quot;Times New Roman&quot;&gt;END&lt;/font&gt;&lt;/b&gt;" style="ellipse;whiteSpace=wrap;html=1;fillColor=#ffe6cc;strokeColor=#d79b00;" vertex="1" parent="1">
          <mxGeometry x="1417.5" y="1130" width="120" height="50" as="geometry" />
        </mxCell>
        <mxCell id="PwG26yF0GhnAKsFlcYfw-53" value="&lt;font size=&quot;1&quot; face=&quot;Times New Roman&quot;&gt;&lt;b style=&quot;font-size: 15px;&quot;&gt;Yes&lt;/b&gt;&lt;/font&gt;" style="text;html=1;align=center;verticalAlign=middle;whiteSpace=wrap;rounded=0;" vertex="1" parent="1">
          <mxGeometry x="1537.5" y="920" width="60" height="30" as="geometry" />
        </mxCell>
        <mxCell id="PwG26yF0GhnAKsFlcYfw-54" value="&lt;font size=&quot;1&quot; face=&quot;Times New Roman&quot;&gt;&lt;b style=&quot;font-size: 15px;&quot;&gt;No&lt;/b&gt;&lt;/font&gt;" style="text;html=1;align=center;verticalAlign=middle;whiteSpace=wrap;rounded=0;" vertex="1" parent="1">
          <mxGeometry x="1430" y="980" width="60" height="30" as="geometry" />
        </mxCell>
        <mxCell id="PwG26yF0GhnAKsFlcYfw-61" style="edgeStyle=orthogonalEdgeStyle;rounded=0;orthogonalLoop=1;jettySize=auto;html=1;entryX=0.5;entryY=0;entryDx=0;entryDy=0;strokeWidth=3;" edge="1" parent="1" source="PwG26yF0GhnAKsFlcYfw-55" target="PwG26yF0GhnAKsFlcYfw-57">
          <mxGeometry relative="1" as="geometry" />
        </mxCell>
        <mxCell id="PwG26yF0GhnAKsFlcYfw-55" value="&lt;b style=&quot;font-family: &amp;quot;Times New Roman&amp;quot;; font-size: 16px;&quot;&gt;void loop()&lt;/b&gt;" style="rounded=1;whiteSpace=wrap;html=1;arcSize=50;fillColor=#ffcccc;strokeColor=#36393d;" vertex="1" parent="1">
          <mxGeometry x="1820" y="30" width="130" height="60" as="geometry" />
        </mxCell>
        <mxCell id="PwG26yF0GhnAKsFlcYfw-62" style="edgeStyle=orthogonalEdgeStyle;rounded=0;orthogonalLoop=1;jettySize=auto;html=1;entryX=0.5;entryY=0;entryDx=0;entryDy=0;strokeWidth=3;" edge="1" parent="1" source="PwG26yF0GhnAKsFlcYfw-57" target="PwG26yF0GhnAKsFlcYfw-58">
          <mxGeometry relative="1" as="geometry" />
        </mxCell>
        <mxCell id="PwG26yF0GhnAKsFlcYfw-57" value="&lt;font style=&quot;font-size: 16px;&quot; face=&quot;Times New Roman&quot;&gt;Nếu qua 1s&lt;/font&gt;" style="rounded=0;whiteSpace=wrap;html=1;fillColor=#cce5ff;strokeColor=#36393d;" vertex="1" parent="1">
          <mxGeometry x="1797.5" y="130" width="175" height="60" as="geometry" />
        </mxCell>
        <mxCell id="PwG26yF0GhnAKsFlcYfw-63" style="edgeStyle=orthogonalEdgeStyle;rounded=0;orthogonalLoop=1;jettySize=auto;html=1;entryX=0;entryY=0.5;entryDx=0;entryDy=0;strokeWidth=3;" edge="1" parent="1" source="PwG26yF0GhnAKsFlcYfw-58" target="PwG26yF0GhnAKsFlcYfw-60">
          <mxGeometry relative="1" as="geometry" />
        </mxCell>
        <mxCell id="PwG26yF0GhnAKsFlcYfw-64" style="edgeStyle=orthogonalEdgeStyle;rounded=0;orthogonalLoop=1;jettySize=auto;html=1;entryX=0.5;entryY=0;entryDx=0;entryDy=0;strokeWidth=3;" edge="1" parent="1" source="PwG26yF0GhnAKsFlcYfw-58" target="PwG26yF0GhnAKsFlcYfw-59">
          <mxGeometry relative="1" as="geometry" />
        </mxCell>
        <mxCell id="PwG26yF0GhnAKsFlcYfw-58" value="&lt;font style=&quot;font-size: 16px;&quot; face=&quot;Times New Roman&quot;&gt;Kiểm tra Wifi?&lt;/font&gt;" style="rhombus;whiteSpace=wrap;html=1;fillColor=#ffcc99;strokeColor=#36393d;" vertex="1" parent="1">
          <mxGeometry x="1805" y="230" width="160" height="80" as="geometry" />
        </mxCell>
        <mxCell id="PwG26yF0GhnAKsFlcYfw-70" style="edgeStyle=orthogonalEdgeStyle;rounded=0;orthogonalLoop=1;jettySize=auto;html=1;strokeWidth=3;" edge="1" parent="1" source="PwG26yF0GhnAKsFlcYfw-59" target="PwG26yF0GhnAKsFlcYfw-67">
          <mxGeometry relative="1" as="geometry" />
        </mxCell>
        <mxCell id="PwG26yF0GhnAKsFlcYfw-73" style="edgeStyle=orthogonalEdgeStyle;rounded=0;orthogonalLoop=1;jettySize=auto;html=1;entryX=0;entryY=0.5;entryDx=0;entryDy=0;strokeWidth=3;" edge="1" parent="1" source="PwG26yF0GhnAKsFlcYfw-59" target="PwG26yF0GhnAKsFlcYfw-72">
          <mxGeometry relative="1" as="geometry" />
        </mxCell>
        <mxCell id="PwG26yF0GhnAKsFlcYfw-59" value="&lt;font style=&quot;font-size: 16px;&quot; face=&quot;Times New Roman&quot;&gt;Kiểm tra Firebase?&lt;/font&gt;" style="rhombus;whiteSpace=wrap;html=1;fillColor=#ffcc99;strokeColor=#36393d;" vertex="1" parent="1">
          <mxGeometry x="1805" y="350" width="160" height="80" as="geometry" />
        </mxCell>
        <mxCell id="PwG26yF0GhnAKsFlcYfw-77" style="edgeStyle=orthogonalEdgeStyle;rounded=0;orthogonalLoop=1;jettySize=auto;html=1;entryX=0.5;entryY=0;entryDx=0;entryDy=0;strokeWidth=3;" edge="1" parent="1" source="PwG26yF0GhnAKsFlcYfw-60" target="PwG26yF0GhnAKsFlcYfw-75">
          <mxGeometry relative="1" as="geometry">
            <mxPoint x="2240" y="670" as="targetPoint" />
            <Array as="points">
              <mxPoint x="2241" y="270" />
              <mxPoint x="2241" y="650" />
              <mxPoint x="1885" y="650" />
            </Array>
          </mxGeometry>
        </mxCell>
        <mxCell id="PwG26yF0GhnAKsFlcYfw-60" value="&lt;font style=&quot;font-size: 16px;&quot; face=&quot;Times New Roman&quot;&gt;&lt;b&gt;connect Wifi()&lt;/b&gt;&lt;/font&gt;" style="shape=process;whiteSpace=wrap;html=1;backgroundOutline=1;fillColor=#ffff88;strokeColor=#36393d;" vertex="1" parent="1">
          <mxGeometry x="2010" y="240" width="175" height="60" as="geometry" />
        </mxCell>
        <mxCell id="PwG26yF0GhnAKsFlcYfw-65" value="&lt;font size=&quot;1&quot; face=&quot;Times New Roman&quot;&gt;&lt;b style=&quot;font-size: 15px;&quot;&gt;Yes&lt;/b&gt;&lt;/font&gt;" style="text;html=1;align=center;verticalAlign=middle;whiteSpace=wrap;rounded=0;" vertex="1" parent="1">
          <mxGeometry x="1830" y="300" width="60" height="30" as="geometry" />
        </mxCell>
        <mxCell id="PwG26yF0GhnAKsFlcYfw-66" value="&lt;font size=&quot;1&quot; face=&quot;Times New Roman&quot;&gt;&lt;b style=&quot;font-size: 15px;&quot;&gt;No&lt;/b&gt;&lt;/font&gt;" style="text;html=1;align=center;verticalAlign=middle;whiteSpace=wrap;rounded=0;" vertex="1" parent="1">
          <mxGeometry x="1950" y="235" width="60" height="30" as="geometry" />
        </mxCell>
        <mxCell id="PwG26yF0GhnAKsFlcYfw-69" style="edgeStyle=orthogonalEdgeStyle;rounded=0;orthogonalLoop=1;jettySize=auto;html=1;entryX=0.5;entryY=0;entryDx=0;entryDy=0;strokeWidth=3;" edge="1" parent="1" source="PwG26yF0GhnAKsFlcYfw-67" target="PwG26yF0GhnAKsFlcYfw-68">
          <mxGeometry relative="1" as="geometry" />
        </mxCell>
        <mxCell id="PwG26yF0GhnAKsFlcYfw-67" value="&lt;font style=&quot;font-size: 16px;&quot; face=&quot;Times New Roman&quot;&gt;&lt;b&gt;sendSensorData()&lt;/b&gt;&lt;/font&gt;" style="shape=process;whiteSpace=wrap;html=1;backgroundOutline=1;fillColor=#fff2cc;strokeColor=#d6b656;gradientColor=#ffd966;" vertex="1" parent="1">
          <mxGeometry x="1797.5" y="470" width="175" height="60" as="geometry" />
        </mxCell>
        <mxCell id="PwG26yF0GhnAKsFlcYfw-76" style="edgeStyle=orthogonalEdgeStyle;rounded=0;orthogonalLoop=1;jettySize=auto;html=1;entryX=0.5;entryY=0;entryDx=0;entryDy=0;strokeWidth=3;" edge="1" parent="1" source="PwG26yF0GhnAKsFlcYfw-68" target="PwG26yF0GhnAKsFlcYfw-75">
          <mxGeometry relative="1" as="geometry" />
        </mxCell>
        <mxCell id="PwG26yF0GhnAKsFlcYfw-68" value="&lt;font style=&quot;font-size: 16px;&quot; face=&quot;Times New Roman&quot;&gt;&lt;b&gt;controlLED()&lt;/b&gt;&lt;/font&gt;" style="shape=process;whiteSpace=wrap;html=1;backgroundOutline=1;fillColor=#f8cecc;strokeColor=#b85450;gradientColor=#ea6b66;" vertex="1" parent="1">
          <mxGeometry x="1797.5" y="570" width="175" height="60" as="geometry" />
        </mxCell>
        <mxCell id="PwG26yF0GhnAKsFlcYfw-71" value="&lt;font size=&quot;1&quot; face=&quot;Times New Roman&quot;&gt;&lt;b style=&quot;font-size: 15px;&quot;&gt;Yes&lt;/b&gt;&lt;/font&gt;" style="text;html=1;align=center;verticalAlign=middle;whiteSpace=wrap;rounded=0;" vertex="1" parent="1">
          <mxGeometry x="1830" y="430" width="60" height="30" as="geometry" />
        </mxCell>
        <mxCell id="PwG26yF0GhnAKsFlcYfw-78" style="edgeStyle=orthogonalEdgeStyle;rounded=0;orthogonalLoop=1;jettySize=auto;html=1;endArrow=classic;endFill=1;strokeWidth=3;" edge="1" parent="1" source="PwG26yF0GhnAKsFlcYfw-72">
          <mxGeometry relative="1" as="geometry">
            <mxPoint x="2240" y="470" as="targetPoint" />
            <Array as="points">
              <mxPoint x="2220" y="390" />
              <mxPoint x="2240" y="391" />
            </Array>
          </mxGeometry>
        </mxCell>
        <mxCell id="PwG26yF0GhnAKsFlcYfw-72" value="&lt;font style=&quot;font-size: 16px;&quot; face=&quot;Times New Roman&quot;&gt;Hiển thị: &quot;Firebase không sẵn sàng&quot;&lt;/font&gt;" style="rounded=0;whiteSpace=wrap;html=1;fillColor=#cce5ff;strokeColor=#36393d;" vertex="1" parent="1">
          <mxGeometry x="2010" y="360" width="175" height="60" as="geometry" />
        </mxCell>
        <mxCell id="PwG26yF0GhnAKsFlcYfw-74" value="&lt;font size=&quot;1&quot; face=&quot;Times New Roman&quot;&gt;&lt;b style=&quot;font-size: 15px;&quot;&gt;No&lt;/b&gt;&lt;/font&gt;" style="text;html=1;align=center;verticalAlign=middle;whiteSpace=wrap;rounded=0;" vertex="1" parent="1">
          <mxGeometry x="1950" y="360" width="60" height="30" as="geometry" />
        </mxCell>
        <mxCell id="PwG26yF0GhnAKsFlcYfw-75" value="&lt;b&gt;&lt;font style=&quot;font-size: 15px;&quot; face=&quot;Times New Roman&quot;&gt;END&lt;/font&gt;&lt;/b&gt;" style="ellipse;whiteSpace=wrap;html=1;fillColor=#ffe6cc;strokeColor=#d79b00;" vertex="1" parent="1">
          <mxGeometry x="1825" y="690" width="120" height="50" as="geometry" />
        </mxCell>
        <mxCell id="PwG26yF0GhnAKsFlcYfw-85" style="edgeStyle=orthogonalEdgeStyle;rounded=0;orthogonalLoop=1;jettySize=auto;html=1;entryX=0.5;entryY=0;entryDx=0;entryDy=0;strokeWidth=3;" edge="1" parent="1" source="PwG26yF0GhnAKsFlcYfw-79" target="PwG26yF0GhnAKsFlcYfw-81">
          <mxGeometry relative="1" as="geometry" />
        </mxCell>
        <mxCell id="PwG26yF0GhnAKsFlcYfw-79" value="&lt;b style=&quot;font-family: &amp;quot;Times New Roman&amp;quot;; font-size: 16px;&quot;&gt;sendSensorData()&lt;/b&gt;" style="rounded=1;whiteSpace=wrap;html=1;arcSize=50;fillColor=#fff2cc;strokeColor=#d6b656;gradientColor=#ffd966;" vertex="1" parent="1">
          <mxGeometry x="2460" y="30" width="160" height="60" as="geometry" />
        </mxCell>
        <mxCell id="PwG26yF0GhnAKsFlcYfw-97" style="edgeStyle=orthogonalEdgeStyle;rounded=0;orthogonalLoop=1;jettySize=auto;html=1;entryX=0.5;entryY=0;entryDx=0;entryDy=0;strokeWidth=3;" edge="1" parent="1" source="PwG26yF0GhnAKsFlcYfw-80" target="PwG26yF0GhnAKsFlcYfw-94">
          <mxGeometry relative="1" as="geometry" />
        </mxCell>
        <mxCell id="PwG26yF0GhnAKsFlcYfw-80" value="&lt;b style=&quot;font-family: &amp;quot;Times New Roman&amp;quot;; font-size: 16px;&quot;&gt;controlLED()&lt;/b&gt;" style="rounded=1;whiteSpace=wrap;html=1;arcSize=50;fillColor=#f8cecc;strokeColor=#b85450;gradientColor=#ea6b66;" vertex="1" parent="1">
          <mxGeometry x="3010" y="30" width="130" height="60" as="geometry" />
        </mxCell>
        <mxCell id="PwG26yF0GhnAKsFlcYfw-86" style="edgeStyle=orthogonalEdgeStyle;rounded=0;orthogonalLoop=1;jettySize=auto;html=1;entryX=0.5;entryY=0;entryDx=0;entryDy=0;strokeWidth=3;" edge="1" parent="1" source="PwG26yF0GhnAKsFlcYfw-81" target="PwG26yF0GhnAKsFlcYfw-82">
          <mxGeometry relative="1" as="geometry" />
        </mxCell>
        <mxCell id="PwG26yF0GhnAKsFlcYfw-81" value="&lt;font face=&quot;Times New Roman&quot;&gt;&lt;span style=&quot;font-size: 16px;&quot;&gt;Đọc nhiệt độ, độ ẩm từ DHT11&lt;/span&gt;&lt;/font&gt;" style="rounded=0;whiteSpace=wrap;html=1;fillColor=#cce5ff;strokeColor=#36393d;" vertex="1" parent="1">
          <mxGeometry x="2452.5" y="130" width="175" height="60" as="geometry" />
        </mxCell>
        <mxCell id="PwG26yF0GhnAKsFlcYfw-87" style="edgeStyle=orthogonalEdgeStyle;rounded=0;orthogonalLoop=1;jettySize=auto;html=1;entryX=0;entryY=0.5;entryDx=0;entryDy=0;strokeWidth=3;" edge="1" parent="1" source="PwG26yF0GhnAKsFlcYfw-82" target="PwG26yF0GhnAKsFlcYfw-84">
          <mxGeometry relative="1" as="geometry" />
        </mxCell>
        <mxCell id="PwG26yF0GhnAKsFlcYfw-88" style="edgeStyle=orthogonalEdgeStyle;rounded=0;orthogonalLoop=1;jettySize=auto;html=1;entryX=0.5;entryY=0;entryDx=0;entryDy=0;strokeWidth=3;" edge="1" parent="1" source="PwG26yF0GhnAKsFlcYfw-82" target="PwG26yF0GhnAKsFlcYfw-83">
          <mxGeometry relative="1" as="geometry" />
        </mxCell>
        <mxCell id="PwG26yF0GhnAKsFlcYfw-82" value="&lt;font style=&quot;font-size: 16px;&quot; face=&quot;Times New Roman&quot;&gt;Kiểm tra Wifi?&lt;/font&gt;" style="rhombus;whiteSpace=wrap;html=1;fillColor=#ffcc99;strokeColor=#36393d;" vertex="1" parent="1">
          <mxGeometry x="2460" y="230" width="160" height="80" as="geometry" />
        </mxCell>
        <mxCell id="PwG26yF0GhnAKsFlcYfw-90" style="edgeStyle=orthogonalEdgeStyle;rounded=0;orthogonalLoop=1;jettySize=auto;html=1;entryX=0.5;entryY=0;entryDx=0;entryDy=0;strokeWidth=3;" edge="1" parent="1" source="PwG26yF0GhnAKsFlcYfw-83" target="PwG26yF0GhnAKsFlcYfw-89">
          <mxGeometry relative="1" as="geometry" />
        </mxCell>
        <mxCell id="PwG26yF0GhnAKsFlcYfw-83" value="&lt;font style=&quot;font-size: 16px;&quot; face=&quot;Times New Roman&quot;&gt;Gửi dữ liệu nhiệt độ và độ ẩm lên Firebase&lt;/font&gt;" style="rounded=0;whiteSpace=wrap;html=1;fillColor=#cce5ff;strokeColor=#36393d;" vertex="1" parent="1">
          <mxGeometry x="2452.5" y="345" width="175" height="60" as="geometry" />
        </mxCell>
        <mxCell id="PwG26yF0GhnAKsFlcYfw-93" style="edgeStyle=orthogonalEdgeStyle;rounded=0;orthogonalLoop=1;jettySize=auto;html=1;endArrow=none;endFill=0;strokeWidth=3;" edge="1" parent="1" source="PwG26yF0GhnAKsFlcYfw-84">
          <mxGeometry relative="1" as="geometry">
            <mxPoint x="2540" y="430" as="targetPoint" />
            <Array as="points">
              <mxPoint x="2758" y="350" />
              <mxPoint x="2758" y="350" />
            </Array>
          </mxGeometry>
        </mxCell>
        <mxCell id="PwG26yF0GhnAKsFlcYfw-84" value="&lt;font style=&quot;font-size: 16px;&quot; face=&quot;Times New Roman&quot;&gt;Gửi lỗi &quot;DHT11 Error&quot; lên Firebase&lt;/font&gt;" style="rounded=0;whiteSpace=wrap;html=1;fillColor=#cce5ff;strokeColor=#36393d;" vertex="1" parent="1">
          <mxGeometry x="2670" y="240" width="175" height="60" as="geometry" />
        </mxCell>
        <mxCell id="PwG26yF0GhnAKsFlcYfw-89" value="&lt;b&gt;&lt;font style=&quot;font-size: 15px;&quot; face=&quot;Times New Roman&quot;&gt;END&lt;/font&gt;&lt;/b&gt;" style="ellipse;whiteSpace=wrap;html=1;fillColor=#ffe6cc;strokeColor=#d79b00;" vertex="1" parent="1">
          <mxGeometry x="2480" y="460" width="120" height="50" as="geometry" />
        </mxCell>
        <mxCell id="PwG26yF0GhnAKsFlcYfw-91" value="&lt;font size=&quot;1&quot; face=&quot;Times New Roman&quot;&gt;&lt;b style=&quot;font-size: 15px;&quot;&gt;Yes&lt;/b&gt;&lt;/font&gt;" style="text;html=1;align=center;verticalAlign=middle;whiteSpace=wrap;rounded=0;" vertex="1" parent="1">
          <mxGeometry x="2490" y="300" width="60" height="30" as="geometry" />
        </mxCell>
        <mxCell id="PwG26yF0GhnAKsFlcYfw-92" value="&lt;font size=&quot;1&quot; face=&quot;Times New Roman&quot;&gt;&lt;b style=&quot;font-size: 15px;&quot;&gt;No&lt;/b&gt;&lt;/font&gt;" style="text;html=1;align=center;verticalAlign=middle;whiteSpace=wrap;rounded=0;" vertex="1" parent="1">
          <mxGeometry x="2600" y="240" width="60" height="30" as="geometry" />
        </mxCell>
        <mxCell id="PwG26yF0GhnAKsFlcYfw-98" style="edgeStyle=orthogonalEdgeStyle;rounded=0;orthogonalLoop=1;jettySize=auto;html=1;entryX=0.5;entryY=0;entryDx=0;entryDy=0;strokeWidth=3;" edge="1" parent="1" source="PwG26yF0GhnAKsFlcYfw-94" target="PwG26yF0GhnAKsFlcYfw-95">
          <mxGeometry relative="1" as="geometry" />
        </mxCell>
        <mxCell id="PwG26yF0GhnAKsFlcYfw-94" value="&lt;font face=&quot;Times New Roman&quot;&gt;&lt;span style=&quot;font-size: 16px;&quot;&gt;Đọc trạng thái LED từ Firebase&lt;/span&gt;&lt;/font&gt;" style="rounded=0;whiteSpace=wrap;html=1;fillColor=#cce5ff;strokeColor=#36393d;" vertex="1" parent="1">
          <mxGeometry x="2987.5" y="130" width="175" height="60" as="geometry" />
        </mxCell>
        <mxCell id="PwG26yF0GhnAKsFlcYfw-99" style="edgeStyle=orthogonalEdgeStyle;rounded=0;orthogonalLoop=1;jettySize=auto;html=1;entryX=0.5;entryY=0;entryDx=0;entryDy=0;strokeWidth=3;" edge="1" parent="1" source="PwG26yF0GhnAKsFlcYfw-95" target="PwG26yF0GhnAKsFlcYfw-96">
          <mxGeometry relative="1" as="geometry" />
        </mxCell>
        <mxCell id="PwG26yF0GhnAKsFlcYfw-104" style="edgeStyle=orthogonalEdgeStyle;rounded=0;orthogonalLoop=1;jettySize=auto;html=1;strokeWidth=3;" edge="1" parent="1" source="PwG26yF0GhnAKsFlcYfw-95" target="PwG26yF0GhnAKsFlcYfw-103">
          <mxGeometry relative="1" as="geometry" />
        </mxCell>
        <mxCell id="PwG26yF0GhnAKsFlcYfw-95" value="&lt;font style=&quot;font-size: 16px;&quot; face=&quot;Times New Roman&quot;&gt;Kiểm tra trạng thái?&lt;/font&gt;" style="rhombus;whiteSpace=wrap;html=1;fillColor=#ffcc99;strokeColor=#36393d;" vertex="1" parent="1">
          <mxGeometry x="2995" y="230" width="160" height="80" as="geometry" />
        </mxCell>
        <mxCell id="PwG26yF0GhnAKsFlcYfw-101" style="edgeStyle=orthogonalEdgeStyle;rounded=0;orthogonalLoop=1;jettySize=auto;html=1;entryX=0.5;entryY=0;entryDx=0;entryDy=0;strokeWidth=3;" edge="1" parent="1" source="PwG26yF0GhnAKsFlcYfw-96" target="PwG26yF0GhnAKsFlcYfw-100">
          <mxGeometry relative="1" as="geometry" />
        </mxCell>
        <mxCell id="PwG26yF0GhnAKsFlcYfw-96" value="&lt;font style=&quot;font-size: 16px;&quot; face=&quot;Times New Roman&quot;&gt;Bật/tắt LED và hiển thị trạng thái LED&lt;/font&gt;" style="rounded=0;whiteSpace=wrap;html=1;fillColor=#cce5ff;strokeColor=#36393d;" vertex="1" parent="1">
          <mxGeometry x="2987.5" y="350" width="175" height="60" as="geometry" />
        </mxCell>
        <mxCell id="PwG26yF0GhnAKsFlcYfw-100" value="&lt;b&gt;&lt;font style=&quot;font-size: 15px;&quot; face=&quot;Times New Roman&quot;&gt;END&lt;/font&gt;&lt;/b&gt;" style="ellipse;whiteSpace=wrap;html=1;fillColor=#ffe6cc;strokeColor=#d79b00;" vertex="1" parent="1">
          <mxGeometry x="3015" y="460" width="120" height="50" as="geometry" />
        </mxCell>
        <mxCell id="PwG26yF0GhnAKsFlcYfw-102" value="&lt;font size=&quot;1&quot; face=&quot;Times New Roman&quot;&gt;&lt;b style=&quot;font-size: 15px;&quot;&gt;Yes&lt;/b&gt;&lt;/font&gt;" style="text;html=1;align=center;verticalAlign=middle;whiteSpace=wrap;rounded=0;" vertex="1" parent="1">
          <mxGeometry x="3030" y="300" width="60" height="30" as="geometry" />
        </mxCell>
        <mxCell id="PwG26yF0GhnAKsFlcYfw-106" style="edgeStyle=orthogonalEdgeStyle;rounded=0;orthogonalLoop=1;jettySize=auto;html=1;strokeWidth=3;entryX=0.487;entryY=0.01;entryDx=0;entryDy=0;entryPerimeter=0;" edge="1" parent="1" source="PwG26yF0GhnAKsFlcYfw-103" target="PwG26yF0GhnAKsFlcYfw-100">
          <mxGeometry relative="1" as="geometry">
            <mxPoint x="3080" y="430" as="targetPoint" />
            <Array as="points">
              <mxPoint x="3287" y="380" />
              <mxPoint x="3288" y="380" />
              <mxPoint x="3288" y="430" />
              <mxPoint x="3073" y="430" />
            </Array>
          </mxGeometry>
        </mxCell>
        <mxCell id="PwG26yF0GhnAKsFlcYfw-103" value="&lt;font style=&quot;font-size: 16px;&quot; face=&quot;Times New Roman&quot;&gt;Hiển thị lỗi đọc trạng thái&lt;/font&gt;" style="rounded=0;whiteSpace=wrap;html=1;fillColor=#cce5ff;strokeColor=#36393d;" vertex="1" parent="1">
          <mxGeometry x="3200" y="240" width="175" height="60" as="geometry" />
        </mxCell>
        <mxCell id="PwG26yF0GhnAKsFlcYfw-105" value="&lt;font size=&quot;1&quot; face=&quot;Times New Roman&quot;&gt;&lt;b style=&quot;font-size: 15px;&quot;&gt;No&lt;/b&gt;&lt;/font&gt;" style="text;html=1;align=center;verticalAlign=middle;whiteSpace=wrap;rounded=0;" vertex="1" parent="1">
          <mxGeometry x="3140" y="235" width="60" height="30" as="geometry" />
        </mxCell>
      </root>
    </mxGraphModel>
  </diagram>
</mxfile>
